<svg width="30" height="30" viewBox="0 0 30 30" fill="none" xmlns="http://www.w3.org/2000/svg">
<path d="M19.6875 1.875C18.3699 1.8747 17.0706 2.18303 15.8937 2.77529C14.7167 3.36755 13.6949 4.22727 12.91 5.28555C12.1251 6.34383 11.5991 7.57125 11.374 8.86944C11.1489 10.1676 11.231 11.5005 11.6137 12.7613L1.875 22.5V28.125H7.5L17.2388 18.3862C18.3993 18.7385 19.6221 18.8365 20.8239 18.6734C22.0257 18.5103 23.1783 18.0901 24.203 17.4413C25.2277 16.7925 26.1005 15.9304 26.7619 14.9138C27.4233 13.8972 27.8577 12.75 28.0357 11.5503C28.2136 10.3506 28.1308 9.12666 27.7929 7.96185C27.455 6.79705 26.87 5.71878 26.0777 4.80053C25.2854 3.88227 24.3044 3.14561 23.2017 2.64076C22.0989 2.13591 20.9003 1.87472 19.6875 1.875ZM19.6875 16.875C19.042 16.8748 18.4001 16.7794 17.7825 16.5919L16.7072 16.2656L15.9131 17.0597L12.9309 20.0419L11.6381 18.75L10.3125 20.0756L11.6053 21.3684L10.1184 22.8553L8.82562 21.5625L7.5 22.8881L8.79281 24.1809L6.72375 26.25H3.75V23.2762L12.9394 14.0869L13.7344 13.2928L13.4081 12.2175C13.0074 10.8966 13.0335 9.48289 13.4825 8.17759C13.9316 6.8723 14.7808 5.74184 15.9094 4.94702C17.038 4.15221 18.3885 3.73352 19.7688 3.7505C21.1491 3.76748 22.4888 4.21927 23.5975 5.04161C24.7062 5.86395 25.5274 7.01496 25.9442 8.33091C26.361 9.64686 26.3523 11.0607 25.9192 12.3714C25.4861 13.6821 24.6508 14.8229 23.532 15.6314C22.4132 16.4399 21.0679 16.8751 19.6875 16.875Z" fill="#F48080"/>
<path d="M20.625 11.25C21.6605 11.25 22.5 10.4105 22.5 9.375C22.5 8.33947 21.6605 7.5 20.625 7.5C19.5895 7.5 18.75 8.33947 18.75 9.375C18.75 10.4105 19.5895 11.25 20.625 11.25Z" fill="#F48080"/>
</svg>
