<svg width="96" height="96" viewBox="0 0 96 96" fill="none" xmlns="http://www.w3.org/2000/svg">
<path d="M48 8C51.1826 8 54.2348 9.26428 56.4853 11.5147C58.7357 13.7652 60 16.8174 60 20C60 23.1826 58.7357 26.2348 56.4853 28.4853C54.2348 30.7357 51.1826 32 48 32C44.8174 32 41.7652 30.7357 39.5147 28.4853C37.2643 26.2348 36 23.1826 36 20C36 16.8174 37.2643 13.7652 39.5147 11.5147C41.7652 9.26428 44.8174 8 48 8ZM48 36C54.52 36 60.48 37.4 66 40.2C71.36 43.04 74 46.44 74 50.44V73.52C74 78 70.56 81.76 63.56 84.76V76C63.56 72.2 60.12 69.52 53.24 67.88C51 67.36 49.24 67.12 48 67.12C44.52 67.12 41.2 67.8 38.16 69.2C35.08 70.56 33.24 72.32 32.64 74.44C38 76.56 43.12 77.64 48 77.64L52 77.24V87.76L48 88C42.6453 88.0053 37.3475 86.9021 32.44 84.76C25.44 81.76 22 78 22 73.52V50.44C22 46.44 24.64 43.04 30 40.2C35.52 37.4 41.52 36 48 36ZM48 44C45.8783 44 43.8434 44.8429 42.3431 46.3431C40.8429 47.8434 40 49.8783 40 52C40 54.1217 40.8429 56.1566 42.3431 57.6569C43.8434 59.1571 45.8783 60 48 60C50.1217 60 52.1566 59.1571 53.6569 57.6569C55.1571 56.1566 56 54.1217 56 52C56 49.8783 55.1571 47.8434 53.6569 46.3431C52.1566 44.8429 50.1217 44 48 44Z" fill="white"/>
</svg>
