<svg width="29" height="24" viewBox="0 0 29 24" fill="none" xmlns="http://www.w3.org/2000/svg">
<path d="M12.8571 0.639533C12.4687 0.23004 11.9419 0 11.3926 0C10.8433 0 10.3165 0.23004 9.92807 0.639533L0.606495 10.4689C0.218157 10.8785 0 11.434 0 12.0132C0 12.5924 0.218157 13.1479 0.606495 13.5575L9.92807 23.3868C10.3187 23.7847 10.842 24.0049 11.3851 23.9999C11.9283 23.9949 12.4478 23.7652 12.8319 23.3602C13.2159 22.9552 13.4338 22.4074 13.4385 21.8347C13.4432 21.262 13.2344 20.7102 12.8571 20.2982L7.24967 14.1975H26.9285C27.4779 14.1975 28.0048 13.9674 28.3933 13.5577C28.7818 13.1481 29 12.5925 29 12.0132C29 11.4339 28.7818 10.8783 28.3933 10.4687C28.0048 10.059 27.4779 9.82889 26.9285 9.82889H7.24967L12.8571 3.72813C13.2454 3.31852 13.4636 2.76303 13.4636 2.18383C13.4636 1.60464 13.2454 1.04915 12.8571 0.639533Z" fill="#F48080"/>
</svg>
